<?xml version="1.0" encoding="utf-8"?>
<!-- Generator: Adobe Illustrator 24.1.1, SVG Export Plug-In . SVG Version: 6.00 Build 0)  -->
<svg version="1.1" id="Layer_1" xmlns="http://www.w3.org/2000/svg" xmlns:xlink="http://www.w3.org/1999/xlink" x="0px" y="0px"
	 viewBox="0 0 512 512" style="enable-background:new 0 0 512 512;" xml:space="preserve">
<g id="XMLID_1_">
	<path id="XMLID_3_" d="M449.7,387.5c-3.7,0-7.4,0-11.1,0c-64.1,0-123.6-25.1-169.1-70.6c-44.6-46.5-69.7-106.8-69.7-171.9
		c0-37.2,8.4-72.5,23.2-105c3.7-8.4,12.1-22.3,17.7-31.6c2.8-3.7-0.9-9.3-5.6-8.4c-8.4,0.9-20.4,3.7-37.2,9.3
		C94.8,41.9,21.4,139.5,21.4,254.7C22.3,396.8,135.7,512,275,512c77.1,0,146.8-35.3,193.2-91c8.4-9.3,14.9-18.6,21.4-28.8
		c2.8-3.7-0.9-9.3-5.6-8.4C472.9,386.6,461.8,386.6,449.7,387.5z"/>
</g>
</svg>
